<?xml version="1.0" standalone="no"?>
<!DOCTYPE svg PUBLIC "-//W3C//DTD SVG 20010904//EN"
 "http://www.w3.org/TR/2001/REC-SVG-20010904/DTD/svg10.dtd">
<svg version="1.0" xmlns="http://www.w3.org/2000/svg"
 width="200.000000pt" height="90.000000pt" viewBox="0 0 200.000000 90.000000"
 preserveAspectRatio="xMidYMid meet">

<g transform="translate(0.000000,90.000000) scale(0.100000,-0.100000)"
fill="#000000" stroke="none">
<path d="M946 656 l-70 -154 -70 64 c-39 35 -73 64 -76 64 -3 0 -32 -41 -65
-89 -54 -80 -64 -90 -100 -98 -35 -7 -46 -17 -99 -95 l-60 -86 -54 -7 c-47 -6
-69 -18 -159 -82 -57 -41 -102 -77 -100 -80 3 -2 52 30 110 71 77 56 113 76
136 76 17 0 75 9 128 21 96 21 97 21 184 97 l88 77 1 90 0 89 68 -67 69 -68
71 73 c69 70 72 75 73 123 2 112 3 112 124 -29 l109 -126 49 2 50 3 61 -147
61 -148 61 0 c55 0 78 -8 215 -70 84 -39 154 -70 157 -70 2 0 -48 56 -113 124
l-116 125 -57 7 c-54 7 -62 11 -161 100 -104 93 -105 94 -157 94 l-51 0 -114
134 c-63 74 -116 135 -119 135 -3 0 -36 -69 -74 -153z"/>
</g>
</svg>
